Mission.Impossible.III.2006.720p.Bluray.x264.anoXmous

Format                           : MPEG-4
Format profile                   : Base Media
Codec ID                         : isom
File size                        : 700 MiB
Duration                         : 2h 5mn
Overall bit rate mode            : Variable
Overall bit rate                 : 780 Kbps


Video
ID                               : 1
Format                           : AVC
Format/Info                      : Advanced Video Codec
Format profile                   : High@L4.1
Format settings, CABAC           : Yes
Format settings, ReFrames        : 4 frames
Codec ID                         : avc1
Codec ID/Info                    : Advanced Video Coding
Duration                         : 2h 5mn
Bit rate                         : 707 Kbps
Maximum bit rate                 : 6 052 Kbps
Width                            : 1 280 pixels
Height                           : 544 pixels
Display aspect ratio             : 2.35:1
Frame rate mode                  : Constant
Frame rate                       : 23.976 fps
Color space                      : YUV
Chroma subsampling               : 4:2:0
Bit depth                        : 8 bits
Scan type                        : Progressive
Bits/(Pixel*Frame)               : 0.042
Stream size                      : 634 MiB (91%)
Writing library                  : x264 core 120 r2120 0c7dab9


Audio
ID                               : 2
Format                           : AAC
Format/Info                      : Advanced Audio Codec
Format profile                   : LC
Codec ID                         : 40
Duration                         : 2h 5mn
Bit rate mode                    : Variable
Bit rate                         : 70.5 Kbps
Maximum bit rate                 : 91.7 Kbps
Channel(s)                       : 2 channels
Channel positions                : Front: L R
Sampling rate                    : 48.0 KHz 
Compression mode                 : Lossy
Stream size                      : 63.3 MiB (9%)


Menu
00:00:00.000                     : Count to Ten
00:04:02.451                     : Engagement Party
00:12:57.860                     : Agent Lindsey Farris
00:21:18.068                     : Chopper Chase
00:26:32.299                     : Intelligence
00:32:56.474                     : Trust and Understanding
00:39:30.493                     : The Vatican
00:46:56.439                     : Finding Davian
00:51:44.310                     : Identity Theft
00:57:34.868                     : Dangerous Cargo
01:02:08.975                     : Bridge Attack
01:09:06.642                     : The Tables Turn
01:18:19.236                     : Shanghai
01:23:31.381                     : Skyscraper
01:27:35.083                     : Night Flight
01:34:08.017                     : It's Complicated
01:42:43.449                     : Mobile Navigator
01:51:10.831                     : Point and Shoot
01:57:27.832                     : Mission: Honeymoon

                              SUB:
  Mission.Impossible.III.2006.720p.Bluray.x264.anoXmous_eng.srt
  Mission.Impossible.III.2006.720p.Bluray.x264.anoXmous _swe.srt

             http://www.imdb.com/title/tt0317919/

  +++++++++ This work very fine with PSP and XBOX :) ++++++++++